<svg xmlns="http://www.w3.org/2000/svg" width="180mm" height="120mm" viewBox="0 0 510.23622 340.15748" role="img" aria-label="图形预览" data-role="figure" font-family="Arial" font-size="10" fill="#000000"><rect data-role="page-background" width="510.23622" height="340.15748" fill="#ffffff" /><g data-role="panel" data-panel-id="panel-main"><defs><clipPath id="panel-clip-panel-main"><rect data-role="panel-clip" x="81.637795" y="20.409449" width="353.291339" height="268.724409" /></clipPath></defs><g data-role="axes"><g data-axis-id="axis-x"><g data-role="axis-x"><line data-role="axis-line" x1="81.637795" y1="289.133858" x2="434.929134" y2="289.133858" stroke="#000000" stroke-width="1" /><line data-role="major-tick" x1="81.637795" y1="289.133858" x2="81.637795" y2="293.133858" stroke="#000000" stroke-width="1" /><text data-role="tick-label" x="81.637795" y="305.133858" text-anchor="middle" fill="#000000" font-family="Arial" font-size="10">-0.5</text><line data-role="major-tick" x1="140.519685" y1="289.133858" x2="140.519685" y2="293.133858" stroke="#000000" stroke-width="1" /><text data-role="tick-label" x="140.519685" y="305.133858" text-anchor="middle" fill="#000000" font-family="Arial" font-size="10">0</text><line data-role="major-tick" x1="258.283465" y1="289.133858" x2="258.283465" y2="293.133858" stroke="#000000" stroke-width="1" /><text data-role="tick-label" x="258.283465" y="305.133858" text-anchor="middle" fill="#000000" font-family="Arial" font-size="10">1</text><line data-role="major-tick" x1="376.047244" y1="289.133858" x2="376.047244" y2="293.133858" stroke="#000000" stroke-width="1" /><text data-role="tick-label" x="376.047244" y="305.133858" text-anchor="middle" fill="#000000" font-family="Arial" font-size="10">2</text><line data-role="major-tick" x1="434.929134" y1="289.133858" x2="434.929134" y2="293.133858" stroke="#000000" stroke-width="1" /><text data-role="tick-label" x="434.929134" y="305.133858" text-anchor="middle" fill="#000000" font-family="Arial" font-size="10">2.5</text><text data-role="axis-title" x="258.283465" y="327.133858" text-anchor="middle" fill="#000000" font-family="Arial" font-size="12">X</text></g></g><g data-axis-id="axis-y"><g data-role="axis-y"><line data-role="axis-line" x1="81.637795" y1="20.409449" x2="81.637795" y2="289.133858" stroke="#000000" stroke-width="1" /><line data-role="major-tick" x1="81.637795" y1="289.133858" x2="77.637795" y2="289.133858" stroke="#000000" stroke-width="1" /><text data-role="tick-label" x="75.637795" y="292.467192" text-anchor="end" fill="#000000" font-family="Arial" font-size="10">-0.5</text><line data-role="major-tick" x1="81.637795" y1="244.346457" x2="77.637795" y2="244.346457" stroke="#000000" stroke-width="1" /><text data-role="tick-label" x="75.637795" y="247.67979" text-anchor="end" fill="#000000" font-family="Arial" font-size="10">0</text><line data-role="major-tick" x1="81.637795" y1="154.771654" x2="77.637795" y2="154.771654" stroke="#000000" stroke-width="1" /><text data-role="tick-label" x="75.637795" y="158.104987" text-anchor="end" fill="#000000" font-family="Arial" font-size="10">1</text><line data-role="major-tick" x1="81.637795" y1="65.19685" x2="77.637795" y2="65.19685" stroke="#000000" stroke-width="1" /><text data-role="tick-label" x="75.637795" y="68.530184" text-anchor="end" fill="#000000" font-family="Arial" font-size="10">2</text><line data-role="major-tick" x1="81.637795" y1="20.409449" x2="77.637795" y2="20.409449" stroke="#000000" stroke-width="1" /><text data-role="tick-label" x="75.637795" y="23.742782" text-anchor="end" fill="#000000" font-family="Arial" font-size="10">2.5</text><text data-role="axis-title" x="39.637795" y="154.771654" text-anchor="middle" fill="#000000" font-family="Arial" font-size="12" transform="rotate(-90 39.637795 154.771654)">Y</text></g></g><g data-axis-id="frame-x"><g data-role="axis-x"><line data-role="axis-line" x1="81.637795" y1="20.409449" x2="434.929134" y2="20.409449" stroke="#000000" stroke-width="1" /></g></g><g data-axis-id="frame-y"><g data-role="axis-y"><line data-role="axis-line" x1="434.929134" y1="20.409449" x2="434.929134" y2="289.133858" stroke="#000000" stroke-width="1" /></g></g></g><g data-role="plots" clip-path="url(#panel-clip-panel-main)"><g data-role="plot-slot" data-kind="contour" data-plot-slot-id="series-1"><path data-role="contour-triangle-band" data-level="1.272727" d="M140.519685 146.62849 L140.519685 244.346457 L153.366643 235.796135 Z" fill="#42105e"/><path data-role="contour-triangle-band" data-level="1.272727" d="M153.366643 235.796135 L140.519685 244.346457 L204.754474 244.346457 Z" fill="#42105e"/><path data-role="contour-triangle-band" data-level="1.818182" d="M143.374565 68.725555 L140.519685 65.19685 L140.519685 146.62849 L153.366643 235.796135 L166.213601 227.245812 Z" fill="#3f2d72"/><path data-role="contour-triangle-band" data-level="1.818182" d="M166.213601 227.245812 L153.366643 235.796135 L204.754474 244.346457 L268.989263 244.346457 Z" fill="#3f2d72"/><path data-role="contour-triangle-band" data-level="1.818182" d="M148.013744 68.046958 L140.519685 65.19685 L143.374565 68.725555 Z" fill="#3f2d72"/><path data-role="contour-triangle-band" data-level="1.818182" d="M144.802004 65.19685 L140.519685 65.19685 L148.013744 68.046958 Z" fill="#3f2d72"/><path data-role="contour-triangle-band" data-level="2.363636" d="M160.503842 89.897781 L143.374565 68.725555 L166.213601 227.245812 L179.060558 218.69549 Z" fill="#3c4b86"/><path data-role="contour-triangle-band" data-level="2.363636" d="M179.060558 218.69549 L166.213601 227.245812 L268.989263 244.346457 L333.224052 244.346457 Z" fill="#3c4b86"/><path data-role="contour-triangle-band" data-level="2.363636" d="M192.978096 85.147602 L148.013744 68.046958 L143.374565 68.725555 L160.503842 89.897781 Z" fill="#3c4b86"/><path data-role="contour-triangle-band" data-level="2.363636" d="M170.49592 65.19685 L144.802004 65.19685 L148.013744 68.046958 L192.978096 85.147602 Z" fill="#3c4b86"/><path data-role="contour-triangle-band" data-level="2.909091" d="M177.633119 111.070007 L160.503842 89.897781 L179.060558 218.69549 L191.907516 210.145168 Z" fill="#34638b"/><path data-role="contour-triangle-band" data-level="2.909091" d="M363.200286 238.646242 L191.907516 210.145168 L179.060558 218.69549 L333.224052 244.346457 L376.047244 244.346457 Z" fill="#34638b"/><path data-role="contour-triangle-band" data-level="2.909091" d="M237.942448 102.248246 L192.978096 85.147602 L160.503842 89.897781 L177.633119 111.070007 Z" fill="#34638b"/><path data-role="contour-triangle-band" data-level="2.909091" d="M363.200286 223.17423 L363.200286 238.646242 L376.047244 244.346457 Z" fill="#34638b"/><path data-role="contour-triangle-band" data-level="2.909091" d="M196.189835 65.19685 L170.49592 65.19685 L192.978096 85.147602 L237.942448 102.248246 Z" fill="#34638b"/><path data-role="contour-triangle-band" data-level="2.909091" d="M363.200286 223.17423 L376.047244 244.346457 L376.047244 236.203293 Z" fill="#34638b"/><path data-role="contour-triangle-band" data-level="3.454545" d="M194.762396 132.242233 L177.633119 111.070007 L191.907516 210.145168 L204.754474 201.594846 Z" fill="#2a7a8c"/><path data-role="contour-triangle-band" data-level="3.454545" d="M363.200286 238.646242 L324.659413 221.545598 L204.754474 201.594846 L191.907516 210.145168 Z" fill="#2a7a8c"/><path data-role="contour-triangle-band" data-level="3.454545" d="M282.9068 119.34889 L237.942448 102.248246 L177.633119 111.070007 L194.762396 132.242233 Z" fill="#2a7a8c"/><path data-role="contour-triangle-band" data-level="3.454545" d="M363.200286 223.17423 L324.659413 159.657552 L324.659413 221.545598 L363.200286 238.646242 Z" fill="#2a7a8c"/><path data-role="contour-triangle-band" data-level="3.454545" d="M221.883751 65.19685 L196.189835 65.19685 L237.942448 102.248246 L282.9068 119.34889 Z" fill="#2a7a8c"/><path data-role="contour-triangle-band" data-level="3.454545" d="M324.659413 159.657552 L363.200286 223.17423 L376.047244 236.203293 L376.047244 211.773801 Z" fill="#2a7a8c"/><path data-role="contour-triangle-band" data-level="4" d="M211.891673 153.41446 L194.762396 132.242233 L204.754474 201.594846 L217.601432 193.044524 Z" fill="#21918c"/><path data-role="contour-triangle-band" data-level="4" d="M324.659413 221.545598 L286.11854 204.444953 L217.601432 193.044524 L204.754474 201.594846 Z" fill="#21918c"/><path data-role="contour-triangle-band" data-level="4" d="M282.9068 119.34889 L194.762396 132.242233 L211.891673 153.41446 L286.11854 142.556908 L305.388976 127.899213 Z" fill="#21918c"/><path data-role="contour-triangle-band" data-level="4" d="M324.659413 159.657552 L305.388976 127.899213 L286.11854 142.556908 L286.11854 204.444953 L324.659413 221.545598 Z" fill="#21918c"/><path data-role="contour-triangle-band" data-level="4" d="M247.577666 65.19685 L221.883751 65.19685 L282.9068 119.34889 L305.388976 127.899213 L311.812455 122.198998 Z" fill="#21918c"/><path data-role="contour-triangle-band" data-level="4" d="M311.812455 122.198998 L305.388976 127.899213 L324.659413 159.657552 L376.047244 211.773801 L376.047244 187.344309 Z" fill="#21918c"/><path data-role="contour-triangle-band" data-level="4.545455" d="M229.02095 174.586686 L211.891673 153.41446 L217.601432 193.044524 L230.448389 184.494202 Z" fill="#37a57d"/><path data-role="contour-triangle-band" data-level="4.545455" d="M286.11854 204.444953 L247.577666 187.344309 L230.448389 184.494202 L217.601432 193.044524 Z" fill="#37a57d"/><path data-role="contour-triangle-band" data-level="4.545455" d="M211.891673 153.41446 L229.02095 174.586686 L247.577666 171.872298 L286.11854 142.556908 Z" fill="#37a57d"/><path data-role="contour-triangle-band" data-level="4.545455" d="M286.11854 142.556908 L247.577666 171.872298 L247.577666 187.344309 L286.11854 204.444953 Z" fill="#37a57d"/><path data-role="contour-triangle-band" data-level="4.545455" d="M273.271582 65.19685 L247.577666 65.19685 L311.812455 122.198998 L324.659413 110.798568 Z" fill="#37a57d"/><path data-role="contour-triangle-band" data-level="4.545455" d="M324.659413 110.798568 L311.812455 122.198998 L376.047244 187.344309 L376.047244 162.914817 Z" fill="#37a57d"/><path data-role="contour-triangle-band" data-level="5.090909" d="M229.02095 174.586686 L230.448389 184.494202 L234.730709 181.644094 Z" fill="#4dba6d"/><path data-role="contour-triangle-band" data-level="5.090909" d="M247.577666 187.344309 L234.730709 181.644094 L230.448389 184.494202 Z" fill="#4dba6d"/><path data-role="contour-triangle-band" data-level="5.090909" d="M229.02095 174.586686 L234.730709 181.644094 L247.577666 171.872298 Z" fill="#4dba6d"/><path data-role="contour-triangle-band" data-level="5.090909" d="M247.577666 171.872298 L234.730709 181.644094 L247.577666 187.344309 Z" fill="#4dba6d"/><path data-role="contour-triangle-band" data-level="5.090909" d="M298.965497 65.19685 L273.271582 65.19685 L324.659413 110.798568 L337.506371 99.398139 Z" fill="#4dba6d"/><path data-role="contour-triangle-band" data-level="5.090909" d="M337.506371 99.398139 L324.659413 110.798568 L376.047244 162.914817 L376.047244 138.485326 Z" fill="#4dba6d"/><path data-role="contour-triangle-band" data-level="5.636364" d="M324.659413 65.19685 L298.965497 65.19685 L337.506371 99.398139 L350.353329 87.997709 Z" fill="#6ccc5c"/><path data-role="contour-triangle-band" data-level="5.636364" d="M350.353329 87.997709 L337.506371 99.398139 L376.047244 138.485326 L376.047244 114.055834 Z" fill="#6ccc5c"/><path data-role="contour-triangle-band" data-level="6.181818" d="M350.353329 65.19685 L324.659413 65.19685 L350.353329 87.997709 L363.200286 76.59728 Z" fill="#a6d746"/><path data-role="contour-triangle-band" data-level="6.181818" d="M363.200286 76.59728 L350.353329 87.997709 L376.047244 114.055834 L376.047244 89.626342 Z" fill="#a6d746"/><path data-role="contour-triangle-band" data-level="6.727273" d="M350.353329 65.19685 L363.200286 76.59728 L376.047244 65.19685 Z" fill="#e0e230"/><path data-role="contour-triangle-band" data-level="6.727273" d="M363.200286 76.59728 L376.047244 89.626342 L376.047244 65.19685 Z" fill="#e0e230"/></g></g><g data-role="colorbar" data-orientation="vertical" data-side="right" data-mode="linked"><defs><linearGradient id="color-series-1" x1="0" x2="0" y1="1" y2="0"><stop offset="0" stop-color="#440154" /><stop offset="0.03125" stop-color="#430b5b" /><stop offset="0.0625" stop-color="#421562" /><stop offset="0.09375" stop-color="#411f69" /><stop offset="0.125" stop-color="#402a70" /><stop offset="0.15625" stop-color="#3e3476" /><stop offset="0.1875" stop-color="#3d3e7d" /><stop offset="0.21875" stop-color="#3c4884" /><stop offset="0.25" stop-color="#3b528b" /><stop offset="0.28125" stop-color="#385a8b" /><stop offset="0.3125" stop-color="#35628b" /><stop offset="0.34375" stop-color="#316a8b" /><stop offset="0.375" stop-color="#2e728c" /><stop offset="0.40625" stop-color="#2b798c" /><stop offset="0.4375" stop-color="#28818c" /><stop offset="0.46875" stop-color="#24898c" /><stop offset="0.5" stop-color="#21918c" /><stop offset="0.53125" stop-color="#299887" /><stop offset="0.5625" stop-color="#309f82" /><stop offset="0.59375" stop-color="#38a67c" /><stop offset="0.625" stop-color="#40ad77" /><stop offset="0.65625" stop-color="#47b472" /><stop offset="0.6875" stop-color="#4fbb6d" /><stop offset="0.71875" stop-color="#56c267" /><stop offset="0.75" stop-color="#5ec962" /><stop offset="0.78125" stop-color="#72cd5a" /><stop offset="0.8125" stop-color="#86d153" /><stop offset="0.84375" stop-color="#9ad44b" /><stop offset="0.875" stop-color="#aed844" /><stop offset="0.90625" stop-color="#c1dc3c" /><stop offset="0.9375" stop-color="#d5e034" /><stop offset="0.96875" stop-color="#e9e32d" /><stop offset="1" stop-color="#fde725" /></linearGradient></defs><text x="452.929134" y="30.409449" font-size="8">Z</text><rect x="452.929134" y="38.409449" width="10" height="232.724409" fill="url(#color-series-1)" /><line data-role="colorbar-major-tick" x1="462.929134" y1="271.133858" x2="465.929134" y2="271.133858" stroke="currentColor"/><text x="467.929134" y="271.133858" text-anchor="start" dominant-baseline="middle" font-size="8">1</text><line data-role="colorbar-major-tick" x1="462.929134" y1="154.771654" x2="465.929134" y2="154.771654" stroke="currentColor"/><text x="467.929134" y="154.771654" text-anchor="start" dominant-baseline="middle" font-size="8">4</text><line data-role="colorbar-major-tick" x1="462.929134" y1="38.409449" x2="465.929134" y2="38.409449" stroke="currentColor"/><text x="467.929134" y="38.409449" text-anchor="start" dominant-baseline="middle" font-size="8">7</text></g><g data-role="annotations"></g></g></svg>