<svg xmlns="http://www.w3.org/2000/svg" width="180mm" height="120mm" viewBox="0 0 510.23622 340.15748" role="img" aria-label="图形预览" data-role="figure" font-family="Arial" font-size="10" fill="#000000"><rect data-role="page-background" width="510.23622" height="340.15748" fill="#ffffff" /><g data-role="panel" data-panel-id="panel-main"><defs><clipPath id="panel-clip-panel-main"><rect data-role="panel-clip" x="81.637795" y="20.409449" width="413.291339" height="268.724409" /></clipPath></defs><g data-role="axis-grid" data-axis-id="axis-y" clip-path="url(#panel-clip-panel-main)"><line data-role="minor-grid" x1="81.637795" y1="262.169156" x2="494.929134" y2="262.169156" stroke="#edf1f5" stroke-width="0.4" /><line data-role="minor-grid" x1="81.637795" y1="246.395816" x2="494.929134" y2="246.395816" stroke="#edf1f5" stroke-width="0.4" /><line data-role="minor-grid" x1="81.637795" y1="235.204453" x2="494.929134" y2="235.204453" stroke="#edf1f5" stroke-width="0.4" /><line data-role="minor-grid" x1="81.637795" y1="226.523758" x2="494.929134" y2="226.523758" stroke="#edf1f5" stroke-width="0.4" /><line data-role="minor-grid" x1="81.637795" y1="219.431113" x2="494.929134" y2="219.431113" stroke="#edf1f5" stroke-width="0.4" /><line data-role="minor-grid" x1="81.637795" y1="213.434368" x2="494.929134" y2="213.434368" stroke="#edf1f5" stroke-width="0.4" /><line data-role="minor-grid" x1="81.637795" y1="208.23975" x2="494.929134" y2="208.23975" stroke="#edf1f5" stroke-width="0.4" /><line data-role="minor-grid" x1="81.637795" y1="203.657773" x2="494.929134" y2="203.657773" stroke="#edf1f5" stroke-width="0.4" /><line data-role="minor-grid" x1="81.637795" y1="172.594353" x2="494.929134" y2="172.594353" stroke="#edf1f5" stroke-width="0.4" /><line data-role="minor-grid" x1="81.637795" y1="156.821013" x2="494.929134" y2="156.821013" stroke="#edf1f5" stroke-width="0.4" /><line data-role="minor-grid" x1="81.637795" y1="145.62965" x2="494.929134" y2="145.62965" stroke="#edf1f5" stroke-width="0.4" /><line data-role="minor-grid" x1="81.637795" y1="136.948955" x2="494.929134" y2="136.948955" stroke="#edf1f5" stroke-width="0.4" /><line data-role="minor-grid" x1="81.637795" y1="129.85631" x2="494.929134" y2="129.85631" stroke="#edf1f5" stroke-width="0.4" /><line data-role="minor-grid" x1="81.637795" y1="123.859565" x2="494.929134" y2="123.859565" stroke="#edf1f5" stroke-width="0.4" /><line data-role="minor-grid" x1="81.637795" y1="118.664947" x2="494.929134" y2="118.664947" stroke="#edf1f5" stroke-width="0.4" /><line data-role="minor-grid" x1="81.637795" y1="114.08297" x2="494.929134" y2="114.08297" stroke="#edf1f5" stroke-width="0.4" /><line data-role="minor-grid" x1="81.637795" y1="83.019549" x2="494.929134" y2="83.019549" stroke="#edf1f5" stroke-width="0.4" /><line data-role="minor-grid" x1="81.637795" y1="67.246209" x2="494.929134" y2="67.246209" stroke="#edf1f5" stroke-width="0.4" /><line data-role="minor-grid" x1="81.637795" y1="56.054847" x2="494.929134" y2="56.054847" stroke="#edf1f5" stroke-width="0.4" /><line data-role="minor-grid" x1="81.637795" y1="47.374151" x2="494.929134" y2="47.374151" stroke="#edf1f5" stroke-width="0.4" /><line data-role="minor-grid" x1="81.637795" y1="40.281507" x2="494.929134" y2="40.281507" stroke="#edf1f5" stroke-width="0.4" /><line data-role="minor-grid" x1="81.637795" y1="34.284761" x2="494.929134" y2="34.284761" stroke="#edf1f5" stroke-width="0.4" /><line data-role="minor-grid" x1="81.637795" y1="29.090144" x2="494.929134" y2="29.090144" stroke="#edf1f5" stroke-width="0.4" /><line data-role="minor-grid" x1="81.637795" y1="24.508167" x2="494.929134" y2="24.508167" stroke="#edf1f5" stroke-width="0.4" /><line data-role="major-grid" x1="81.637795" y1="289.133858" x2="494.929134" y2="289.133858" stroke="#dce4eb" stroke-width="0.5" /><line data-role="major-grid" x1="81.637795" y1="199.559055" x2="494.929134" y2="199.559055" stroke="#dce4eb" stroke-width="0.5" /><line data-role="major-grid" x1="81.637795" y1="109.984252" x2="494.929134" y2="109.984252" stroke="#dce4eb" stroke-width="0.5" /><line data-role="major-grid" x1="81.637795" y1="20.409449" x2="494.929134" y2="20.409449" stroke="#dce4eb" stroke-width="0.5" /></g><g data-role="axes"><g data-role="axis-x"><line data-role="axis-line" x1="81.637795" y1="289.133858" x2="494.929134" y2="289.133858" stroke="#000000" stroke-width="1" /><line data-role="major-tick" x1="81.637795" y1="289.133858" x2="81.637795" y2="293.133858" stroke="#000000" stroke-width="1" /><text data-role="tick-label" x="81.637795" y="305.133858" text-anchor="middle" fill="#000000" font-family="Arial" font-size="10">1</text><line data-role="major-tick" x1="127.559055" y1="289.133858" x2="127.559055" y2="293.133858" stroke="#000000" stroke-width="1" /><text data-role="tick-label" x="127.559055" y="305.133858" text-anchor="middle" fill="#000000" font-family="Arial" font-size="10">2</text><line data-role="major-tick" x1="219.401575" y1="289.133858" x2="219.401575" y2="293.133858" stroke="#000000" stroke-width="1" /><text data-role="tick-label" x="219.401575" y="305.133858" text-anchor="middle" fill="#000000" font-family="Arial" font-size="10">4</text><line data-role="major-tick" x1="311.244094" y1="289.133858" x2="311.244094" y2="293.133858" stroke="#000000" stroke-width="1" /><text data-role="tick-label" x="311.244094" y="305.133858" text-anchor="middle" fill="#000000" font-family="Arial" font-size="10">6</text><line data-role="major-tick" x1="403.086614" y1="289.133858" x2="403.086614" y2="293.133858" stroke="#000000" stroke-width="1" /><text data-role="tick-label" x="403.086614" y="305.133858" text-anchor="middle" fill="#000000" font-family="Arial" font-size="10">8</text><line data-role="major-tick" x1="494.929134" y1="289.133858" x2="494.929134" y2="293.133858" stroke="#000000" stroke-width="1" /><text data-role="tick-label" x="494.929134" y="305.133858" text-anchor="middle" fill="#000000" font-family="Arial" font-size="10">10</text><text data-role="axis-title" x="288.283465" y="327.133858" text-anchor="middle" fill="#000000" font-family="Arial" font-size="12">X</text></g><g data-role="axis-y"><line data-role="axis-line" x1="81.637795" y1="20.409449" x2="81.637795" y2="289.133858" stroke="#000000" stroke-width="1" /><line data-role="minor-tick" x1="81.637795" y1="262.169156" x2="79.637795" y2="262.169156" stroke="#000000" stroke-width="0.8" /><line data-role="minor-tick" x1="81.637795" y1="246.395816" x2="79.637795" y2="246.395816" stroke="#000000" stroke-width="0.8" /><line data-role="minor-tick" x1="81.637795" y1="235.204453" x2="79.637795" y2="235.204453" stroke="#000000" stroke-width="0.8" /><line data-role="minor-tick" x1="81.637795" y1="226.523758" x2="79.637795" y2="226.523758" stroke="#000000" stroke-width="0.8" /><line data-role="minor-tick" x1="81.637795" y1="219.431113" x2="79.637795" y2="219.431113" stroke="#000000" stroke-width="0.8" /><line data-role="minor-tick" x1="81.637795" y1="213.434368" x2="79.637795" y2="213.434368" stroke="#000000" stroke-width="0.8" /><line data-role="minor-tick" x1="81.637795" y1="208.23975" x2="79.637795" y2="208.23975" stroke="#000000" stroke-width="0.8" /><line data-role="minor-tick" x1="81.637795" y1="203.657773" x2="79.637795" y2="203.657773" stroke="#000000" stroke-width="0.8" /><line data-role="minor-tick" x1="81.637795" y1="172.594353" x2="79.637795" y2="172.594353" stroke="#000000" stroke-width="0.8" /><line data-role="minor-tick" x1="81.637795" y1="156.821013" x2="79.637795" y2="156.821013" stroke="#000000" stroke-width="0.8" /><line data-role="minor-tick" x1="81.637795" y1="145.62965" x2="79.637795" y2="145.62965" stroke="#000000" stroke-width="0.8" /><line data-role="minor-tick" x1="81.637795" y1="136.948955" x2="79.637795" y2="136.948955" stroke="#000000" stroke-width="0.8" /><line data-role="minor-tick" x1="81.637795" y1="129.85631" x2="79.637795" y2="129.85631" stroke="#000000" stroke-width="0.8" /><line data-role="minor-tick" x1="81.637795" y1="123.859565" x2="79.637795" y2="123.859565" stroke="#000000" stroke-width="0.8" /><line data-role="minor-tick" x1="81.637795" y1="118.664947" x2="79.637795" y2="118.664947" stroke="#000000" stroke-width="0.8" /><line data-role="minor-tick" x1="81.637795" y1="114.08297" x2="79.637795" y2="114.08297" stroke="#000000" stroke-width="0.8" /><line data-role="minor-tick" x1="81.637795" y1="83.019549" x2="79.637795" y2="83.019549" stroke="#000000" stroke-width="0.8" /><line data-role="minor-tick" x1="81.637795" y1="67.246209" x2="79.637795" y2="67.246209" stroke="#000000" stroke-width="0.8" /><line data-role="minor-tick" x1="81.637795" y1="56.054847" x2="79.637795" y2="56.054847" stroke="#000000" stroke-width="0.8" /><line data-role="minor-tick" x1="81.637795" y1="47.374151" x2="79.637795" y2="47.374151" stroke="#000000" stroke-width="0.8" /><line data-role="minor-tick" x1="81.637795" y1="40.281507" x2="79.637795" y2="40.281507" stroke="#000000" stroke-width="0.8" /><line data-role="minor-tick" x1="81.637795" y1="34.284761" x2="79.637795" y2="34.284761" stroke="#000000" stroke-width="0.8" /><line data-role="minor-tick" x1="81.637795" y1="29.090144" x2="79.637795" y2="29.090144" stroke="#000000" stroke-width="0.8" /><line data-role="minor-tick" x1="81.637795" y1="24.508167" x2="79.637795" y2="24.508167" stroke="#000000" stroke-width="0.8" /><line data-role="major-tick" x1="81.637795" y1="289.133858" x2="77.637795" y2="289.133858" stroke="#000000" stroke-width="1" /><text data-role="tick-label" x="75.637795" y="292.467192" text-anchor="end" fill="#000000" font-family="Arial" font-size="10">1</text><line data-role="major-tick" x1="81.637795" y1="199.559055" x2="77.637795" y2="199.559055" stroke="#000000" stroke-width="1" /><text data-role="tick-label" x="75.637795" y="202.892388" text-anchor="end" fill="#000000" font-family="Arial" font-size="10">10</text><line data-role="major-tick" x1="81.637795" y1="109.984252" x2="77.637795" y2="109.984252" stroke="#000000" stroke-width="1" /><text data-role="tick-label" x="75.637795" y="113.317585" text-anchor="end" fill="#000000" font-family="Arial" font-size="10">100</text><line data-role="major-tick" x1="81.637795" y1="20.409449" x2="77.637795" y2="20.409449" stroke="#000000" stroke-width="1" /><text data-role="tick-label" x="75.637795" y="23.742782" text-anchor="end" fill="#000000" font-family="Arial" font-size="10">1000</text><text data-role="axis-title" x="39.637795" y="154.771654" text-anchor="middle" fill="#202428" font-family="Arial" font-size="12" transform="rotate(-90 39.637795 154.771654)">log10</text></g><g data-role="axis-x"><line data-role="axis-line" x1="81.637795" y1="20.409449" x2="494.929134" y2="20.409449" stroke="#000000" stroke-width="1" /></g><g data-role="axis-y"><line data-role="axis-line" x1="494.929134" y1="20.409449" x2="494.929134" y2="289.133858" stroke="#000000" stroke-width="1" /></g></g><g data-role="plots" clip-path="url(#panel-clip-panel-main)"><g data-role="plot-slot" data-plot-slot-id="series-1"><path d="M81.637795 289.133858 L127.559055 262.169156 L173.480315 226.523758 L219.401575 199.559055 L265.322835 172.594353 L311.244094 136.948955 L357.165354 109.984252 L403.086614 83.019549 L449.007874 47.374151 L494.929134 20.409449" fill="none" stroke="#515151" stroke-width="1.5" /><rect data-role="marker" fill="#515151" stroke="#515151" stroke-width="0.5" x="79.137795" y="286.633858" width="5" height="5" /><rect data-role="marker" fill="#515151" stroke="#515151" stroke-width="0.5" x="125.059055" y="259.669156" width="5" height="5" /><rect data-role="marker" fill="#515151" stroke="#515151" stroke-width="0.5" x="170.980315" y="224.023758" width="5" height="5" /><rect data-role="marker" fill="#515151" stroke="#515151" stroke-width="0.5" x="216.901575" y="197.059055" width="5" height="5" /><rect data-role="marker" fill="#515151" stroke="#515151" stroke-width="0.5" x="262.822835" y="170.094353" width="5" height="5" /><rect data-role="marker" fill="#515151" stroke="#515151" stroke-width="0.5" x="308.744094" y="134.448955" width="5" height="5" /><rect data-role="marker" fill="#515151" stroke="#515151" stroke-width="0.5" x="354.665354" y="107.484252" width="5" height="5" /><rect data-role="marker" fill="#515151" stroke="#515151" stroke-width="0.5" x="400.586614" y="80.519549" width="5" height="5" /><rect data-role="marker" fill="#515151" stroke="#515151" stroke-width="0.5" x="446.507874" y="44.874151" width="5" height="5" /><rect data-role="marker" fill="#515151" stroke="#515151" stroke-width="0.5" x="492.429134" y="17.909449" width="5" height="5" /></g></g><g data-role="annotations"></g></g></svg>